<svg xmlns="http://www.w3.org/2000/svg" version="1.1" width="100%" height="100%" x="0" y="0" viewBox="0 0 500 500" style="enable-background:new 0 0 512 512" xml:space="preserve" ><g><g xmlns="http://www.w3.org/2000/svg" id="line_color" data-name="line color"><path d="m302.279 300.568c-40.145 11.889-87.082-58.725-95.02-65.253l-119.33.183c-8.9 4.81-64.649 95.17-41.61 122.94 7.869 9.484 18.067 18.617 27.886 26.476l3.014 64.594h-8.9a22 22 0 0 0 -22 22 12.487 12.487 0 0 0 12.49 12.492h71.51v-67.96a13.217 13.217 0 0 1 13.21-13.21h8.34a13.211 13.211 0 0 1 13.21 13.21v67.96h71.51a12.5 12.5 0 0 0 12.5-12.49 22 22 0 0 0 -22.01-22h-8.9l5.92-126.83c40.181 23.943 86.931 32.824 105.8 13.03 11.956-12.543 4.801-44.742-27.62-35.142z" fill="#ffffff" data-original="#ffffff" ></path><path d="m214.98 243.192c-32.232 45.882-102.367 46.011-134.74.22 17.268-21.952 42.648-19.94 67.465-19.94 24.695 0 49.981-2.011 67.275 19.72z" fill="#bcbec0" data-original="#bcbec0" ></path><path d="m104.568 295.83h101.172v67.676h-101.172z" fill="#bcbec0" data-original="#bcbec0" ></path><path d="m108.87 414.332c0 17.487-14.548 31.417-31.82 31.55l-2.933-62.939c18.313-1.843 34.753 12.968 34.753 31.389z" fill="#bcbec0" data-original="#bcbec0" ></path><path d="m221.29 382.822-2.94 63.03a31.862 31.862 0 0 1 -30.081-33.773c1.189-16.752 16.138-30.251 33.021-29.257z" fill="#bcbec0" data-original="#bcbec0" ></path><path d="m105.568 293.031h86.268v57.706h-86.268z" fill="#ffc862" data-original="#ffc862" ></path><g fill="#bcbec0"><path d="m72.1 383.212a223.078 223.078 0 0 1 -17.874-16.112c-5.033-5.1-10.363-10.271-12.326-17.368 18.22-12.4 28.83-42.06 28.83-42.06z" fill="#bcbec0" data-original="#bcbec0" ></path><path d="m277.52 298.632a24.885 24.885 0 1 1 -40.18-29.04c11.47 11.608 25.75 23.508 40.18 29.04z" fill="#bcbec0" data-original="#bcbec0" ></path><path d="m329.89 335.712c-10.64 11.39-31.49 12.87-50.58 8.97-20.75-4.24-39.77-12.97-55.21-22-9.425 3.122-13.07-15.68 0-15.01 0 0 57.76 29.83 72.84 26.83s30.28-7.18 28.18-33.09c12.52 6.9 13.07 25.42 4.77 34.3z" fill="#bcbec0" data-original="#bcbec0" ></path><path d="m249.09 471.512a12.5 12.5 0 0 1 -12.5 12.488h-71.51v-12.49z" fill="#bcbec0" data-original="#bcbec0" ></path><path d="m130.32 471.512v12.488h-71.51a12.487 12.487 0 0 1 -12.49-12.49c0-.678 84 .002 84 .002z" fill="#bcbec0" data-original="#bcbec0" ></path><path d="m176.03 400.622v83.378h-10.95v-67.96a13.2 13.2 0 0 0 -13.21-13.21h-8.34a13.211 13.211 0 0 0 -13.21 13.21v67.96h-11.29v-83.38a12.086 12.086 0 0 1 12.09-12.09h32.82a12.086 12.086 0 0 1 12.09 12.092z" fill="#bcbec0" data-original="#bcbec0" ></path></g><path d="m148.702 307.672h27.328v27.328h-27.328z" fill="#b28632" data-original="#b28632" ></path><rect fill="#ffc862" height="59.631" rx="10.603" width="41.316" x="41.624" y="148.687" data-original="#ffc862" ></rect><rect fill="#ffc862" height="59.631" rx="10.603" transform="matrix(-1 0 0 -1 462.516 357.006)" width="41.316" x="210.6" y="148.687" data-original="#ffc862" ></rect><circle cx="147.509" cy="178.605" fill="#ffffff" r="82.379" data-original="#ffffff" ></circle><circle cx="147.509" cy="178.605" fill="#284d7a" r="50.828" data-original="#284d7a" ></circle><path d="m459.208 113.455c-10.983 1.4-19.208 3.38-45.848 24.945-37.456 30.32-47.18 18.313-44.269 10.372s13.909-15.966-2.591-20.347-76.684 30.45-76.684 30.45l-12.42-97.454s60.18-34.831 76.685-30.45 5.5 12.407 2.593 20.347 6.813 19.948 44.269-10.372c26.637-21.565 33.173-23.329 45.846-24.946z" fill="#B243F7" data-original="#3566a2" ></path><path d="m400.46 41.332c-9 7.24-26.93 21.045-39.2 18.83l7.567 54.205c-9.108-6.314-30.519 5.19-40.555 6.177-13.71 1.349-23.992-.655-27.172-14.916-4.268-19.142 1.274-41.576 6.43-60.116-16.26 7.88-30.14 15.91-30.14 15.91l12.42 97.45c11.9-6.829 24.1-13.2 36.56-18.932 8.619-3.964 40.63-21.14 48.3-7.056 4.028 7.393-11.824 16.464-3.733 23.454 11.07 9.564 35.371-13.026 42.711-18.166z" fill="#B243F7" data-original="#284d7a" ></path><path d="m198.34 178.6a50.855 50.855 0 0 1 -41.74 50.02 50.839 50.839 0 0 1 0-100.04 50.855 50.855 0 0 1 41.74 50.02z" fill="#3566a2" data-original="#3566a2" ></path><path d="m173.54 134.942-27.3 94.47a50.383 50.383 0 0 1 -25.89-7.85l27.18-93.79a50.865 50.865 0 0 1 26.01 7.17z" fill="#ffffff" data-original="#ffffff" ></path><path d="m190.29 151.142-21.31 73.54a49.579 49.579 0 0 1 -8.83 3.16l24.32-84.13a50.557 50.557 0 0 1 5.82 7.43z" fill="#ffffff" data-original="#ffffff" ></path><path d="m459.21 113.452c-8.22 1.05-14.9 2.42-28.92 12.1l-12.14-97.79c13.26-9.29 19.28-10.56 28.64-11.76z" fill="#B243F7" data-original="#ffffff" ></path><path d="m375.233 134.156c-2.982-11.473-24.931-3.843-30.633-1.794l-15.82-96.19c7.251-2.791 27.82-11.277 33.64-.46 1.095 7.082-15.17 26.444 3.23 24.69z" fill="#B243F7" data-original="#ffffff" ></path></g><g xmlns="http://www.w3.org/2000/svg" id="outline_color" fill="#262262" data-name="outline color"><path d="m465.16 112.7-12.42-97.457a6 6 0 0 0 -6.71-5.193c-14.47 1.844-21.936 4.434-48.864 26.232-23.688 19.176-33.77 18.93-34.951 17.906a1.387 1.387 0 0 1 .09-.8 30.076 30.076 0 0 1 2.507-4.648c2.509-4.108 5.633-9.222 3.4-14.792-2.185-5.446-8.234-7.615-12.593-8.771-5.343-1.418-16.2-1.515-48.654 13.964-9.714 4.634-18.684 9.391-24.746 12.709l-1.057-8.3a6 6 0 1 0 -11.9 1.517l31.807 249.614c-.164.047-.323.085-.488.134-28.943 8.565-65.144-35.339-80.605-54.087-1.878-2.278-3.377-4.089-4.621-5.547a88.535 88.535 0 0 0 12.992-20.863h12.967a16.624 16.624 0 0 0 16.611-16.6v-38.429a16.625 16.625 0 0 0 -16.611-16.6h-4.98v-51.321a6 6 0 0 0 -12 0v43.58a88.354 88.354 0 0 0 -157.565 7.74h-14.54a16.619 16.619 0 0 0 -16.6 16.6v38.429a16.618 16.618 0 0 0 16.6 16.6h14.446a88.564 88.564 0 0 0 13.005 20.883c-6.49 7.6-14.806 21.407-19.611 30.1-7 12.667-19.39 37.267-23.733 59.682-3.212 16.578-1.407 29.123 5.366 37.286 6.649 8.014 15.6 16.625 26.635 25.619l1.286 27.553c0 .055-.009.109-.009.165a6.072 6.072 0 0 0 .051.743l1.268 27.16h-2.614a28.031 28.031 0 0 0 -28 28 18.511 18.511 0 0 0 18.49 18.492h71.51a6 6 0 0 0 6-6v-67.96a7.218 7.218 0 0 1 7.21-7.21h8.34a7.218 7.218 0 0 1 7.21 7.21v67.96a6 6 0 0 0 6 6h71.51a18.516 18.516 0 0 0 18.5-18.49 28.036 28.036 0 0 0 -28.01-28h-2.613l5.173-110.827c18.322 9.77 37.374 16.391 54.5 18.851a100.215 100.215 0 0 0 14.235 1.076 73.158 73.158 0 0 0 9.991-.666l10.808 84.771a6 6 0 0 0 5.945 5.242 6.217 6.217 0 0 0 .766-.049 6 6 0 0 0 5.193-6.711l-10.987-86.171a37.825 37.825 0 0 0 14.153-9.177c8.176-8.576 9.43-23.721 2.854-34.479-2.657-4.348-9.724-12.823-24.177-12.583l-16.65-130.671c5.384-3.01 16.412-9.034 28.344-14.723 29.851-14.232 38.428-13.678 40.346-13.169a15.962 15.962 0 0 1 4.274 1.633 32.193 32.193 0 0 1 -2.243 4.079 39.035 39.035 0 0 0 -3.532 6.772 12.452 12.452 0 0 0 4.163 14.642c6.521 4.663 20.4 5.279 49.514-18.286 26.682-21.6 33.808-22.506 42.831-23.655a6 6 0 0 0 5.194-6.711zm-219.24 46.589v38.429a4.611 4.611 0 0 1 -4.611 4.6h-8.656a88.54 88.54 0 0 0 -.056-47.63h8.712a4.612 4.612 0 0 1 4.611 4.601zm-98.412-57.064a76.38 76.38 0 1 1 -76.379 76.38 76.467 76.467 0 0 1 76.379-76.38zm-95.279 100.093a4.6 4.6 0 0 1 -4.6-4.6v-38.429a4.605 4.605 0 0 1 4.6-4.6h10.191a88.54 88.54 0 0 0 -.056 47.63zm274.628 109.309c3.751 6.135 3.155 15.268-1.3 19.942a27.944 27.944 0 0 1 -13.07 7.3 6.019 6.019 0 0 0 -1.065.282c-20.207 4.989-52.7-2.839-84.213-21.606l-.023-.014-.015-.009c-.018-.011-.037-.018-.055-.029-.154-.089-.31-.173-.472-.249-.047-.023-.1-.04-.144-.061-.132-.057-.265-.114-.4-.163-.077-.027-.155-.047-.232-.071-.109-.034-.217-.069-.328-.1s-.22-.046-.33-.067c-.083-.015-.163-.034-.247-.046-.145-.021-.291-.032-.437-.043-.049 0-.1-.011-.145-.014h-.014a6.034 6.034 0 0 0 -1.187.066c-.041.006-.081.017-.121.025-.154.027-.308.056-.459.1-.026.006-.052.016-.078.023a5.977 5.977 0 0 0 -3.575 2.712c-.068.114-.125.232-.184.348-.026.051-.055.1-.08.151-.055.116-.1.234-.149.352-.026.067-.056.131-.081.2-.044.124-.079.249-.115.375-.019.064-.041.127-.057.193-.036.142-.062.285-.086.428-.009.052-.022.1-.03.154-.025.176-.041.351-.051.527 0 .022 0 .043-.006.065v.014.038l-4.068 87.155h-20.3a6 6 0 0 0 0 12h19.736l-1.289 27.623a6 6 0 0 0 5.993 6.28h8.9a16.023 16.023 0 0 1 16.01 16 6.5 6.5 0 0 1 -6.5 6.49h-65.51v-61.96a19.231 19.231 0 0 0 -19.21-19.21h-8.34a19.232 19.232 0 0 0 -19.21 19.21v61.962h-65.511a6.5 6.5 0 0 1 -6.49-6.49 16.018 16.018 0 0 1 16-16h8.9a6 6 0 0 0 5.994-6.28l-1.289-27.623h19.69a6 6 0 1 0 0-12h-20.25l-1.156-24.759c0-.03 0-.06 0-.091l-3.611-77.367a6 6 0 0 0 -11.987.559l2.965 63.541a158.648 158.648 0 0 1 -16.634-16.882c-3.718-4.48-4.953-11.9-3.671-22.065 3.914-31.031 30.339-75.879 40.691-88.691a88.219 88.219 0 0 0 119.051.048c1.147 1.362 2.433 2.922 3.7 4.464 16.536 20.053 49.122 59.572 82.07 59.568a39.22 39.22 0 0 0 11.2-1.61c10.718-3.175 18.843-1.291 22.875 5.305zm82.728-177.891c-23.685 19.172-33.77 18.927-34.951 17.906a1.387 1.387 0 0 1 .09-.8 29.939 29.939 0 0 1 2.507-4.647c2.51-4.108 5.633-9.223 3.4-14.793-2.185-5.447-8.233-7.615-12.593-8.772a18.742 18.742 0 0 0 -4.916-.6c-6.755 0-18.944 2.735-43.738 14.562-9.71 4.63-18.679 9.388-24.741 12.706l-10.786-84.64c5.387-3.013 16.413-9.035 28.337-14.72 29.851-14.23 38.428-13.676 40.347-13.168a15.967 15.967 0 0 1 4.274 1.633 31.581 31.581 0 0 1 -2.243 4.078 39.035 39.035 0 0 0 -3.532 6.772 12.452 12.452 0 0 0 4.16 14.647c6.521 4.664 20.406 5.278 49.514-18.286 21.425-17.343 29.125-21.2 36.9-22.76l10.908 85.6c-9.836 1.986-20.131 6.821-42.937 25.282z" fill="#262262" data-original="#262262" ></path><path d="m169.623 139.611a40.759 40.759 0 0 1 3.694 2.343 6 6 0 0 0 6.965-9.772 53.1 53.1 0 0 0 -4.786-3.036 6 6 0 0 0 -5.873 10.465z" fill="#262262" data-original="#262262" ></path><path d="m147.509 235.428a56.828 56.828 0 0 0 48.261-86.836 6 6 0 1 0 -10.181 6.352 44.833 44.833 0 1 1 -38.08-21.166c1.367 0 2.737.063 4.072.185a6 6 0 0 0 1.1-11.95c-1.7-.156-3.437-.235-5.169-.235a56.825 56.825 0 1 0 0 113.65z" fill="#262262" data-original="#262262" ></path><path d="m191.836 287.031h-86.268a6 6 0 0 0 -6 6v57.706a6 6 0 0 0 6 6h86.268a6 6 0 0 0 6-6v-57.706a6 6 0 0 0 -6-6zm-6 57.706h-74.268v-45.706h74.268z" fill="#262262" data-original="#262262" ></path><path d="m369.682 77.841a6 6 0 1 0 -11.882 1.659l4.562 32.73a6 6 0 0 0 5.935 5.173 6.088 6.088 0 0 0 .836-.058 6 6 0 0 0 5.114-6.771z" fill="#262262" data-original="#262262" ></path><path d="m125.739 318.669h8a6 6 0 1 0 0-12h-8a6 6 0 0 0 0 12z" fill="#262262" data-original="#262262" ></path><path d="m125.739 336.669h8a6 6 0 1 0 0-12h-8a6 6 0 0 0 0 12z" fill="#262262" data-original="#262262" ></path></g></g></svg>
